<?xml version="1.0" encoding="utf-8" standalone="no"?>
<!DOCTYPE svg PUBLIC "-//W3C//DTD SVG 1.1//EN"
  "http://www.w3.org/Graphics/SVG/1.1/DTD/svg11.dtd">
<svg xmlns:xlink="http://www.w3.org/1999/xlink" width="720pt" height="720pt" viewBox="0 0 720 720" xmlns="http://www.w3.org/2000/svg" version="1.1">
 <metadata>
  <rdf:RDF xmlns:dc="http://purl.org/dc/elements/1.1/" xmlns:cc="http://creativecommons.org/ns#" xmlns:rdf="http://www.w3.org/1999/02/22-rdf-syntax-ns#">
   <cc:Work>
    <dc:type rdf:resource="http://purl.org/dc/dcmitype/StillImage"/>
    <dc:date>2023-04-18T02:54:01.949281</dc:date>
    <dc:format>image/svg+xml</dc:format>
    <dc:creator>
     <cc:Agent>
      <dc:title>Matplotlib v3.7.1, https://matplotlib.org/</dc:title>
     </cc:Agent>
    </dc:creator>
   </cc:Work>
  </rdf:RDF>
 </metadata>
 <defs>
  <style type="text/css">*{stroke-linejoin: round; stroke-linecap: butt}</style>
 </defs>
 <g id="figure_1">
  <g id="patch_1">
   <path d="M 0 720 
L 720 720 
L 720 0 
L 0 0 
z
" style="fill: #ffffff"/>
  </g>
  <g id="axes_1">
   <g id="patch_2">
    <path d="M 90 640.8 
L 648 640.8 
L 648 86.4 
L 90 86.4 
z
" style="fill: #ffffff"/>
   </g>
   <g id="matplotlib.axis_1">
    <g id="xtick_1">
     <g id="line2d_1">
      <defs>
       <path id="m27153fbedf" d="M 0 0 
L 0 3.5 
" style="stroke: #000000; stroke-width: 0.8"/>
      </defs>
      <g>
       <use xlink:href="#m27153fbedf" x="622.636364" y="640.8" style="stroke: #000000; stroke-width: 0.8"/>
      </g>
     </g>
     <g id="text_1">
      <!-- 75 -->
      <g transform="translate(609.911364 662.996875) scale(0.2 -0.2)">
       <defs>
        <path id="DejaVuSans-37" d="M 525 4666 
L 3525 4666 
L 3525 4397 
L 1831 0 
L 1172 0 
L 2766 4134 
L 525 4134 
L 525 4666 
z
" transform="scale(0.015625)"/>
        <path id="DejaVuSans-35" d="M 691 4666 
L 3169 4666 
L 3169 4134 
L 1269 4134 
L 1269 2991 
Q 1406 3038 1543 3061 
Q 1681 3084 1819 3084 
Q 2600 3084 3056 2656 
Q 3513 2228 3513 1497 
Q 3513 744 3044 326 
Q 2575 -91 1722 -91 
Q 1428 -91 1123 -41 
Q 819 9 494 109 
L 494 744 
Q 775 591 1075 516 
Q 1375 441 1709 441 
Q 2250 441 2565 725 
Q 2881 1009 2881 1497 
Q 2881 1984 2565 2268 
Q 2250 2553 1709 2553 
Q 1456 2553 1204 2497 
Q 953 2441 691 2322 
L 691 4666 
z
" transform="scale(0.015625)"/>
       </defs>
       <use xlink:href="#DejaVuSans-37"/>
       <use xlink:href="#DejaVuSans-35" x="63.623047"/>
      </g>
     </g>
    </g>
    <g id="xtick_2">
     <g id="line2d_2">
      <g>
       <use xlink:href="#m27153fbedf" x="357.643148" y="640.8" style="stroke: #000000; stroke-width: 0.8"/>
      </g>
     </g>
     <g id="text_2">
      <!-- 40 -->
      <g transform="translate(344.918148 662.996875) scale(0.2 -0.2)">
       <defs>
        <path id="DejaVuSans-34" d="M 2419 4116 
L 825 1625 
L 2419 1625 
L 2419 4116 
z
M 2253 4666 
L 3047 4666 
L 3047 1625 
L 3713 1625 
L 3713 1100 
L 3047 1100 
L 3047 0 
L 2419 0 
L 2419 1100 
L 313 1100 
L 313 1709 
L 2253 4666 
z
" transform="scale(0.015625)"/>
        <path id="DejaVuSans-30" d="M 2034 4250 
Q 1547 4250 1301 3770 
Q 1056 3291 1056 2328 
Q 1056 1369 1301 889 
Q 1547 409 2034 409 
Q 2525 409 2770 889 
Q 3016 1369 3016 2328 
Q 3016 3291 2770 3770 
Q 2525 4250 2034 4250 
z
M 2034 4750 
Q 2819 4750 3233 4129 
Q 3647 3509 3647 2328 
Q 3647 1150 3233 529 
Q 2819 -91 2034 -91 
Q 1250 -91 836 529 
Q 422 1150 422 2328 
Q 422 3509 836 4129 
Q 1250 4750 2034 4750 
z
" transform="scale(0.015625)"/>
       </defs>
       <use xlink:href="#DejaVuSans-34"/>
       <use xlink:href="#DejaVuSans-30" x="63.623047"/>
      </g>
     </g>
    </g>
    <g id="xtick_3">
     <g id="line2d_3">
      <g>
       <use xlink:href="#m27153fbedf" x="130.506106" y="640.8" style="stroke: #000000; stroke-width: 0.8"/>
      </g>
     </g>
     <g id="text_3">
      <!-- 10 -->
      <g transform="translate(117.781106 662.996875) scale(0.2 -0.2)">
       <defs>
        <path id="DejaVuSans-31" d="M 794 531 
L 1825 531 
L 1825 4091 
L 703 3866 
L 703 4441 
L 1819 4666 
L 2450 4666 
L 2450 531 
L 3481 531 
L 3481 0 
L 794 0 
L 794 531 
z
" transform="scale(0.015625)"/>
       </defs>
       <use xlink:href="#DejaVuSans-31"/>
       <use xlink:href="#DejaVuSans-30" x="63.623047"/>
      </g>
     </g>
    </g>
    <g id="text_4">
     <!-- Percentage of pre-labeled nodes -->
     <g transform="translate(206.73125 686.353125) scale(0.2 -0.2)">
      <defs>
       <path id="DejaVuSans-50" d="M 1259 4147 
L 1259 2394 
L 2053 2394 
Q 2494 2394 2734 2622 
Q 2975 2850 2975 3272 
Q 2975 3691 2734 3919 
Q 2494 4147 2053 4147 
L 1259 4147 
z
M 628 4666 
L 2053 4666 
Q 2838 4666 3239 4311 
Q 3641 3956 3641 3272 
Q 3641 2581 3239 2228 
Q 2838 1875 2053 1875 
L 1259 1875 
L 1259 0 
L 628 0 
L 628 4666 
z
" transform="scale(0.015625)"/>
       <path id="DejaVuSans-65" d="M 3597 1894 
L 3597 1613 
L 953 1613 
Q 991 1019 1311 708 
Q 1631 397 2203 397 
Q 2534 397 2845 478 
Q 3156 559 3463 722 
L 3463 178 
Q 3153 47 2828 -22 
Q 2503 -91 2169 -91 
Q 1331 -91 842 396 
Q 353 884 353 1716 
Q 353 2575 817 3079 
Q 1281 3584 2069 3584 
Q 2775 3584 3186 3129 
Q 3597 2675 3597 1894 
z
M 3022 2063 
Q 3016 2534 2758 2815 
Q 2500 3097 2075 3097 
Q 1594 3097 1305 2825 
Q 1016 2553 972 2059 
L 3022 2063 
z
" transform="scale(0.015625)"/>
       <path id="DejaVuSans-72" d="M 2631 2963 
Q 2534 3019 2420 3045 
Q 2306 3072 2169 3072 
Q 1681 3072 1420 2755 
Q 1159 2438 1159 1844 
L 1159 0 
L 581 0 
L 581 3500 
L 1159 3500 
L 1159 2956 
Q 1341 3275 1631 3429 
Q 1922 3584 2338 3584 
Q 2397 3584 2469 3576 
Q 2541 3569 2628 3553 
L 2631 2963 
z
" transform="scale(0.015625)"/>
       <path id="DejaVuSans-63" d="M 3122 3366 
L 3122 2828 
Q 2878 2963 2633 3030 
Q 2388 3097 2138 3097 
Q 1578 3097 1268 2742 
Q 959 2388 959 1747 
Q 959 1106 1268 751 
Q 1578 397 2138 397 
Q 2388 397 2633 464 
Q 2878 531 3122 666 
L 3122 134 
Q 2881 22 2623 -34 
Q 2366 -91 2075 -91 
Q 1284 -91 818 406 
Q 353 903 353 1747 
Q 353 2603 823 3093 
Q 1294 3584 2113 3584 
Q 2378 3584 2631 3529 
Q 2884 3475 3122 3366 
z
" transform="scale(0.015625)"/>
       <path id="DejaVuSans-6e" d="M 3513 2113 
L 3513 0 
L 2938 0 
L 2938 2094 
Q 2938 2591 2744 2837 
Q 2550 3084 2163 3084 
Q 1697 3084 1428 2787 
Q 1159 2491 1159 1978 
L 1159 0 
L 581 0 
L 581 3500 
L 1159 3500 
L 1159 2956 
Q 1366 3272 1645 3428 
Q 1925 3584 2291 3584 
Q 2894 3584 3203 3211 
Q 3513 2838 3513 2113 
z
" transform="scale(0.015625)"/>
       <path id="DejaVuSans-74" d="M 1172 4494 
L 1172 3500 
L 2356 3500 
L 2356 3053 
L 1172 3053 
L 1172 1153 
Q 1172 725 1289 603 
Q 1406 481 1766 481 
L 2356 481 
L 2356 0 
L 1766 0 
Q 1100 0 847 248 
Q 594 497 594 1153 
L 594 3053 
L 172 3053 
L 172 3500 
L 594 3500 
L 594 4494 
L 1172 4494 
z
" transform="scale(0.015625)"/>
       <path id="DejaVuSans-61" d="M 2194 1759 
Q 1497 1759 1228 1600 
Q 959 1441 959 1056 
Q 959 750 1161 570 
Q 1363 391 1709 391 
Q 2188 391 2477 730 
Q 2766 1069 2766 1631 
L 2766 1759 
L 2194 1759 
z
M 3341 1997 
L 3341 0 
L 2766 0 
L 2766 531 
Q 2569 213 2275 61 
Q 1981 -91 1556 -91 
Q 1019 -91 701 211 
Q 384 513 384 1019 
Q 384 1609 779 1909 
Q 1175 2209 1959 2209 
L 2766 2209 
L 2766 2266 
Q 2766 2663 2505 2880 
Q 2244 3097 1772 3097 
Q 1472 3097 1187 3025 
Q 903 2953 641 2809 
L 641 3341 
Q 956 3463 1253 3523 
Q 1550 3584 1831 3584 
Q 2591 3584 2966 3190 
Q 3341 2797 3341 1997 
z
" transform="scale(0.015625)"/>
       <path id="DejaVuSans-67" d="M 2906 1791 
Q 2906 2416 2648 2759 
Q 2391 3103 1925 3103 
Q 1463 3103 1205 2759 
Q 947 2416 947 1791 
Q 947 1169 1205 825 
Q 1463 481 1925 481 
Q 2391 481 2648 825 
Q 2906 1169 2906 1791 
z
M 3481 434 
Q 3481 -459 3084 -895 
Q 2688 -1331 1869 -1331 
Q 1566 -1331 1297 -1286 
Q 1028 -1241 775 -1147 
L 775 -588 
Q 1028 -725 1275 -790 
Q 1522 -856 1778 -856 
Q 2344 -856 2625 -561 
Q 2906 -266 2906 331 
L 2906 616 
Q 2728 306 2450 153 
Q 2172 0 1784 0 
Q 1141 0 747 490 
Q 353 981 353 1791 
Q 353 2603 747 3093 
Q 1141 3584 1784 3584 
Q 2172 3584 2450 3431 
Q 2728 3278 2906 2969 
L 2906 3500 
L 3481 3500 
L 3481 434 
z
" transform="scale(0.015625)"/>
       <path id="DejaVuSans-20" transform="scale(0.015625)"/>
       <path id="DejaVuSans-6f" d="M 1959 3097 
Q 1497 3097 1228 2736 
Q 959 2375 959 1747 
Q 959 1119 1226 758 
Q 1494 397 1959 397 
Q 2419 397 2687 759 
Q 2956 1122 2956 1747 
Q 2956 2369 2687 2733 
Q 2419 3097 1959 3097 
z
M 1959 3584 
Q 2709 3584 3137 3096 
Q 3566 2609 3566 1747 
Q 3566 888 3137 398 
Q 2709 -91 1959 -91 
Q 1206 -91 779 398 
Q 353 888 353 1747 
Q 353 2609 779 3096 
Q 1206 3584 1959 3584 
z
" transform="scale(0.015625)"/>
       <path id="DejaVuSans-66" d="M 2375 4863 
L 2375 4384 
L 1825 4384 
Q 1516 4384 1395 4259 
Q 1275 4134 1275 3809 
L 1275 3500 
L 2222 3500 
L 2222 3053 
L 1275 3053 
L 1275 0 
L 697 0 
L 697 3053 
L 147 3053 
L 147 3500 
L 697 3500 
L 697 3744 
Q 697 4328 969 4595 
Q 1241 4863 1831 4863 
L 2375 4863 
z
" transform="scale(0.015625)"/>
       <path id="DejaVuSans-70" d="M 1159 525 
L 1159 -1331 
L 581 -1331 
L 581 3500 
L 1159 3500 
L 1159 2969 
Q 1341 3281 1617 3432 
Q 1894 3584 2278 3584 
Q 2916 3584 3314 3078 
Q 3713 2572 3713 1747 
Q 3713 922 3314 415 
Q 2916 -91 2278 -91 
Q 1894 -91 1617 61 
Q 1341 213 1159 525 
z
M 3116 1747 
Q 3116 2381 2855 2742 
Q 2594 3103 2138 3103 
Q 1681 3103 1420 2742 
Q 1159 2381 1159 1747 
Q 1159 1113 1420 752 
Q 1681 391 2138 391 
Q 2594 391 2855 752 
Q 3116 1113 3116 1747 
z
" transform="scale(0.015625)"/>
       <path id="DejaVuSans-2d" d="M 313 2009 
L 1997 2009 
L 1997 1497 
L 313 1497 
L 313 2009 
z
" transform="scale(0.015625)"/>
       <path id="DejaVuSans-6c" d="M 603 4863 
L 1178 4863 
L 1178 0 
L 603 0 
L 603 4863 
z
" transform="scale(0.015625)"/>
       <path id="DejaVuSans-62" d="M 3116 1747 
Q 3116 2381 2855 2742 
Q 2594 3103 2138 3103 
Q 1681 3103 1420 2742 
Q 1159 2381 1159 1747 
Q 1159 1113 1420 752 
Q 1681 391 2138 391 
Q 2594 391 2855 752 
Q 3116 1113 3116 1747 
z
M 1159 2969 
Q 1341 3281 1617 3432 
Q 1894 3584 2278 3584 
Q 2916 3584 3314 3078 
Q 3713 2572 3713 1747 
Q 3713 922 3314 415 
Q 2916 -91 2278 -91 
Q 1894 -91 1617 61 
Q 1341 213 1159 525 
L 1159 0 
L 581 0 
L 581 4863 
L 1159 4863 
L 1159 2969 
z
" transform="scale(0.015625)"/>
       <path id="DejaVuSans-64" d="M 2906 2969 
L 2906 4863 
L 3481 4863 
L 3481 0 
L 2906 0 
L 2906 525 
Q 2725 213 2448 61 
Q 2172 -91 1784 -91 
Q 1150 -91 751 415 
Q 353 922 353 1747 
Q 353 2572 751 3078 
Q 1150 3584 1784 3584 
Q 2172 3584 2448 3432 
Q 2725 3281 2906 2969 
z
M 947 1747 
Q 947 1113 1208 752 
Q 1469 391 1925 391 
Q 2381 391 2643 752 
Q 2906 1113 2906 1747 
Q 2906 2381 2643 2742 
Q 2381 3103 1925 3103 
Q 1469 3103 1208 2742 
Q 947 2381 947 1747 
z
" transform="scale(0.015625)"/>
       <path id="DejaVuSans-73" d="M 2834 3397 
L 2834 2853 
Q 2591 2978 2328 3040 
Q 2066 3103 1784 3103 
Q 1356 3103 1142 2972 
Q 928 2841 928 2578 
Q 928 2378 1081 2264 
Q 1234 2150 1697 2047 
L 1894 2003 
Q 2506 1872 2764 1633 
Q 3022 1394 3022 966 
Q 3022 478 2636 193 
Q 2250 -91 1575 -91 
Q 1294 -91 989 -36 
Q 684 19 347 128 
L 347 722 
Q 666 556 975 473 
Q 1284 391 1588 391 
Q 1994 391 2212 530 
Q 2431 669 2431 922 
Q 2431 1156 2273 1281 
Q 2116 1406 1581 1522 
L 1381 1569 
Q 847 1681 609 1914 
Q 372 2147 372 2553 
Q 372 3047 722 3315 
Q 1072 3584 1716 3584 
Q 2034 3584 2315 3537 
Q 2597 3491 2834 3397 
z
" transform="scale(0.015625)"/>
      </defs>
      <use xlink:href="#DejaVuSans-50"/>
      <use xlink:href="#DejaVuSans-65" x="56.677734"/>
      <use xlink:href="#DejaVuSans-72" x="118.201172"/>
      <use xlink:href="#DejaVuSans-63" x="157.064453"/>
      <use xlink:href="#DejaVuSans-65" x="212.044922"/>
      <use xlink:href="#DejaVuSans-6e" x="273.568359"/>
      <use xlink:href="#DejaVuSans-74" x="336.947266"/>
      <use xlink:href="#DejaVuSans-61" x="376.15625"/>
      <use xlink:href="#DejaVuSans-67" x="437.435547"/>
      <use xlink:href="#DejaVuSans-65" x="500.912109"/>
      <use xlink:href="#DejaVuSans-20" x="562.435547"/>
      <use xlink:href="#DejaVuSans-6f" x="594.222656"/>
      <use xlink:href="#DejaVuSans-66" x="655.404297"/>
      <use xlink:href="#DejaVuSans-20" x="690.609375"/>
      <use xlink:href="#DejaVuSans-70" x="722.396484"/>
      <use xlink:href="#DejaVuSans-72" x="785.873047"/>
      <use xlink:href="#DejaVuSans-65" x="824.736328"/>
      <use xlink:href="#DejaVuSans-2d" x="886.259766"/>
      <use xlink:href="#DejaVuSans-6c" x="922.34375"/>
      <use xlink:href="#DejaVuSans-61" x="950.126953"/>
      <use xlink:href="#DejaVuSans-62" x="1011.40625"/>
      <use xlink:href="#DejaVuSans-65" x="1074.882812"/>
      <use xlink:href="#DejaVuSans-6c" x="1136.40625"/>
      <use xlink:href="#DejaVuSans-65" x="1164.189453"/>
      <use xlink:href="#DejaVuSans-64" x="1225.712891"/>
      <use xlink:href="#DejaVuSans-20" x="1289.189453"/>
      <use xlink:href="#DejaVuSans-6e" x="1320.976562"/>
      <use xlink:href="#DejaVuSans-6f" x="1384.355469"/>
      <use xlink:href="#DejaVuSans-64" x="1445.537109"/>
      <use xlink:href="#DejaVuSans-65" x="1509.013672"/>
      <use xlink:href="#DejaVuSans-73" x="1570.537109"/>
     </g>
    </g>
   </g>
   <g id="matplotlib.axis_2">
    <g id="ytick_1">
     <g id="line2d_4">
      <defs>
       <path id="mca23e064d8" d="M 0 0 
L -3.5 0 
" style="stroke: #000000; stroke-width: 0.8"/>
      </defs>
      <g>
       <use xlink:href="#mca23e064d8" x="90" y="561.663587" style="stroke: #000000; stroke-width: 0.8"/>
      </g>
     </g>
     <g id="text_5">
      <!-- 0.45 -->
      <g transform="translate(38.46875 569.262025) scale(0.2 -0.2)">
       <defs>
        <path id="DejaVuSans-2e" d="M 684 794 
L 1344 794 
L 1344 0 
L 684 0 
L 684 794 
z
" transform="scale(0.015625)"/>
       </defs>
       <use xlink:href="#DejaVuSans-30"/>
       <use xlink:href="#DejaVuSans-2e" x="63.623047"/>
       <use xlink:href="#DejaVuSans-34" x="95.410156"/>
       <use xlink:href="#DejaVuSans-35" x="159.033203"/>
      </g>
     </g>
    </g>
    <g id="ytick_2">
     <g id="line2d_5">
      <g>
       <use xlink:href="#mca23e064d8" x="90" y="468.19113" style="stroke: #000000; stroke-width: 0.8"/>
      </g>
     </g>
     <g id="text_6">
      <!-- 0.50 -->
      <g transform="translate(38.46875 475.789567) scale(0.2 -0.2)">
       <use xlink:href="#DejaVuSans-30"/>
       <use xlink:href="#DejaVuSans-2e" x="63.623047"/>
       <use xlink:href="#DejaVuSans-35" x="95.410156"/>
       <use xlink:href="#DejaVuSans-30" x="159.033203"/>
      </g>
     </g>
    </g>
    <g id="ytick_3">
     <g id="line2d_6">
      <g>
       <use xlink:href="#mca23e064d8" x="90" y="374.718673" style="stroke: #000000; stroke-width: 0.8"/>
      </g>
     </g>
     <g id="text_7">
      <!-- 0.55 -->
      <g transform="translate(38.46875 382.31711) scale(0.2 -0.2)">
       <use xlink:href="#DejaVuSans-30"/>
       <use xlink:href="#DejaVuSans-2e" x="63.623047"/>
       <use xlink:href="#DejaVuSans-35" x="95.410156"/>
       <use xlink:href="#DejaVuSans-35" x="159.033203"/>
      </g>
     </g>
    </g>
    <g id="ytick_4">
     <g id="line2d_7">
      <g>
       <use xlink:href="#mca23e064d8" x="90" y="281.246215" style="stroke: #000000; stroke-width: 0.8"/>
      </g>
     </g>
     <g id="text_8">
      <!-- 0.60 -->
      <g transform="translate(38.46875 288.844653) scale(0.2 -0.2)">
       <defs>
        <path id="DejaVuSans-36" d="M 2113 2584 
Q 1688 2584 1439 2293 
Q 1191 2003 1191 1497 
Q 1191 994 1439 701 
Q 1688 409 2113 409 
Q 2538 409 2786 701 
Q 3034 994 3034 1497 
Q 3034 2003 2786 2293 
Q 2538 2584 2113 2584 
z
M 3366 4563 
L 3366 3988 
Q 3128 4100 2886 4159 
Q 2644 4219 2406 4219 
Q 1781 4219 1451 3797 
Q 1122 3375 1075 2522 
Q 1259 2794 1537 2939 
Q 1816 3084 2150 3084 
Q 2853 3084 3261 2657 
Q 3669 2231 3669 1497 
Q 3669 778 3244 343 
Q 2819 -91 2113 -91 
Q 1303 -91 875 529 
Q 447 1150 447 2328 
Q 447 3434 972 4092 
Q 1497 4750 2381 4750 
Q 2619 4750 2861 4703 
Q 3103 4656 3366 4563 
z
" transform="scale(0.015625)"/>
       </defs>
       <use xlink:href="#DejaVuSans-30"/>
       <use xlink:href="#DejaVuSans-2e" x="63.623047"/>
       <use xlink:href="#DejaVuSans-36" x="95.410156"/>
       <use xlink:href="#DejaVuSans-30" x="159.033203"/>
      </g>
     </g>
    </g>
    <g id="ytick_5">
     <g id="line2d_8">
      <g>
       <use xlink:href="#mca23e064d8" x="90" y="187.773758" style="stroke: #000000; stroke-width: 0.8"/>
      </g>
     </g>
     <g id="text_9">
      <!-- 0.65 -->
      <g transform="translate(38.46875 195.372196) scale(0.2 -0.2)">
       <use xlink:href="#DejaVuSans-30"/>
       <use xlink:href="#DejaVuSans-2e" x="63.623047"/>
       <use xlink:href="#DejaVuSans-36" x="95.410156"/>
       <use xlink:href="#DejaVuSans-35" x="159.033203"/>
      </g>
     </g>
    </g>
    <g id="ytick_6">
     <g id="line2d_9">
      <g>
       <use xlink:href="#mca23e064d8" x="90" y="94.301301" style="stroke: #000000; stroke-width: 0.8"/>
      </g>
     </g>
     <g id="text_10">
      <!-- 0.70 -->
      <g transform="translate(38.46875 101.899738) scale(0.2 -0.2)">
       <use xlink:href="#DejaVuSans-30"/>
       <use xlink:href="#DejaVuSans-2e" x="63.623047"/>
       <use xlink:href="#DejaVuSans-37" x="95.410156"/>
       <use xlink:href="#DejaVuSans-30" x="159.033203"/>
      </g>
     </g>
    </g>
    <g id="text_11">
     <!-- Matthews Correlation Coefficient -->
     <g transform="translate(30.309375 527.329687) rotate(-90) scale(0.2 -0.2)">
      <defs>
       <path id="DejaVuSans-4d" d="M 628 4666 
L 1569 4666 
L 2759 1491 
L 3956 4666 
L 4897 4666 
L 4897 0 
L 4281 0 
L 4281 4097 
L 3078 897 
L 2444 897 
L 1241 4097 
L 1241 0 
L 628 0 
L 628 4666 
z
" transform="scale(0.015625)"/>
       <path id="DejaVuSans-68" d="M 3513 2113 
L 3513 0 
L 2938 0 
L 2938 2094 
Q 2938 2591 2744 2837 
Q 2550 3084 2163 3084 
Q 1697 3084 1428 2787 
Q 1159 2491 1159 1978 
L 1159 0 
L 581 0 
L 581 4863 
L 1159 4863 
L 1159 2956 
Q 1366 3272 1645 3428 
Q 1925 3584 2291 3584 
Q 2894 3584 3203 3211 
Q 3513 2838 3513 2113 
z
" transform="scale(0.015625)"/>
       <path id="DejaVuSans-77" d="M 269 3500 
L 844 3500 
L 1563 769 
L 2278 3500 
L 2956 3500 
L 3675 769 
L 4391 3500 
L 4966 3500 
L 4050 0 
L 3372 0 
L 2619 2869 
L 1863 0 
L 1184 0 
L 269 3500 
z
" transform="scale(0.015625)"/>
       <path id="DejaVuSans-43" d="M 4122 4306 
L 4122 3641 
Q 3803 3938 3442 4084 
Q 3081 4231 2675 4231 
Q 1875 4231 1450 3742 
Q 1025 3253 1025 2328 
Q 1025 1406 1450 917 
Q 1875 428 2675 428 
Q 3081 428 3442 575 
Q 3803 722 4122 1019 
L 4122 359 
Q 3791 134 3420 21 
Q 3050 -91 2638 -91 
Q 1578 -91 968 557 
Q 359 1206 359 2328 
Q 359 3453 968 4101 
Q 1578 4750 2638 4750 
Q 3056 4750 3426 4639 
Q 3797 4528 4122 4306 
z
" transform="scale(0.015625)"/>
       <path id="DejaVuSans-69" d="M 603 3500 
L 1178 3500 
L 1178 0 
L 603 0 
L 603 3500 
z
M 603 4863 
L 1178 4863 
L 1178 4134 
L 603 4134 
L 603 4863 
z
" transform="scale(0.015625)"/>
      </defs>
      <use xlink:href="#DejaVuSans-4d"/>
      <use xlink:href="#DejaVuSans-61" x="86.279297"/>
      <use xlink:href="#DejaVuSans-74" x="147.558594"/>
      <use xlink:href="#DejaVuSans-74" x="186.767578"/>
      <use xlink:href="#DejaVuSans-68" x="225.976562"/>
      <use xlink:href="#DejaVuSans-65" x="289.355469"/>
      <use xlink:href="#DejaVuSans-77" x="350.878906"/>
      <use xlink:href="#DejaVuSans-73" x="432.666016"/>
      <use xlink:href="#DejaVuSans-20" x="484.765625"/>
      <use xlink:href="#DejaVuSans-43" x="516.552734"/>
      <use xlink:href="#DejaVuSans-6f" x="586.376953"/>
      <use xlink:href="#DejaVuSans-72" x="647.558594"/>
      <use xlink:href="#DejaVuSans-72" x="686.921875"/>
      <use xlink:href="#DejaVuSans-65" x="725.785156"/>
      <use xlink:href="#DejaVuSans-6c" x="787.308594"/>
      <use xlink:href="#DejaVuSans-61" x="815.091797"/>
      <use xlink:href="#DejaVuSans-74" x="876.371094"/>
      <use xlink:href="#DejaVuSans-69" x="915.580078"/>
      <use xlink:href="#DejaVuSans-6f" x="943.363281"/>
      <use xlink:href="#DejaVuSans-6e" x="1004.544922"/>
      <use xlink:href="#DejaVuSans-20" x="1067.923828"/>
      <use xlink:href="#DejaVuSans-43" x="1099.710938"/>
      <use xlink:href="#DejaVuSans-6f" x="1169.535156"/>
      <use xlink:href="#DejaVuSans-65" x="1230.716797"/>
      <use xlink:href="#DejaVuSans-66" x="1292.240234"/>
      <use xlink:href="#DejaVuSans-66" x="1327.445312"/>
      <use xlink:href="#DejaVuSans-69" x="1362.650391"/>
      <use xlink:href="#DejaVuSans-63" x="1390.433594"/>
      <use xlink:href="#DejaVuSans-69" x="1445.414062"/>
      <use xlink:href="#DejaVuSans-65" x="1473.197266"/>
      <use xlink:href="#DejaVuSans-6e" x="1534.720703"/>
      <use xlink:href="#DejaVuSans-74" x="1598.099609"/>
     </g>
    </g>
   </g>
   <g id="LineCollection_1">
    <path d="M 607.493894 339.819122 
L 607.493894 111.6 
" clip-path="url(#p4c6276bd3e)" style="fill: none; stroke: #1f77b4; stroke-width: 1.5"/>
    <path d="M 342.500678 396.93808 
L 342.500678 244.784068 
" clip-path="url(#p4c6276bd3e)" style="fill: none; stroke: #1f77b4; stroke-width: 1.5"/>
    <path d="M 115.363636 611.304108 
L 115.363636 476.913323 
" clip-path="url(#p4c6276bd3e)" style="fill: none; stroke: #1f77b4; stroke-width: 1.5"/>
   </g>
   <g id="line2d_10">
    <defs>
     <path id="m428c1d2185" d="M 3 0 
L -3 -0 
" style="stroke: #1f77b4"/>
    </defs>
    <g clip-path="url(#p4c6276bd3e)">
     <use xlink:href="#m428c1d2185" x="607.493894" y="339.819122" style="fill: #1f77b4; stroke: #1f77b4"/>
     <use xlink:href="#m428c1d2185" x="342.500678" y="396.93808" style="fill: #1f77b4; stroke: #1f77b4"/>
     <use xlink:href="#m428c1d2185" x="115.363636" y="611.304108" style="fill: #1f77b4; stroke: #1f77b4"/>
    </g>
   </g>
   <g id="line2d_11">
    <g clip-path="url(#p4c6276bd3e)">
     <use xlink:href="#m428c1d2185" x="607.493894" y="111.6" style="fill: #1f77b4; stroke: #1f77b4"/>
     <use xlink:href="#m428c1d2185" x="342.500678" y="244.784068" style="fill: #1f77b4; stroke: #1f77b4"/>
     <use xlink:href="#m428c1d2185" x="115.363636" y="476.913323" style="fill: #1f77b4; stroke: #1f77b4"/>
    </g>
   </g>
   <g id="LineCollection_2">
    <path d="M 615.065129 606.80997 
L 615.065129 375.65626 
" clip-path="url(#p4c6276bd3e)" style="fill: none; stroke: #ff7f0e; stroke-width: 1.5"/>
    <path d="M 350.071913 559.264632 
L 350.071913 399.690541 
" clip-path="url(#p4c6276bd3e)" style="fill: none; stroke: #ff7f0e; stroke-width: 1.5"/>
    <path d="M 122.934871 598.120433 
L 122.934871 471.655929 
" clip-path="url(#p4c6276bd3e)" style="fill: none; stroke: #ff7f0e; stroke-width: 1.5"/>
   </g>
   <g id="line2d_12">
    <defs>
     <path id="maae96cf89a" d="M 3 0 
L -3 -0 
" style="stroke: #ff7f0e"/>
    </defs>
    <g clip-path="url(#p4c6276bd3e)">
     <use xlink:href="#maae96cf89a" x="615.065129" y="606.80997" style="fill: #ff7f0e; stroke: #ff7f0e"/>
     <use xlink:href="#maae96cf89a" x="350.071913" y="559.264632" style="fill: #ff7f0e; stroke: #ff7f0e"/>
     <use xlink:href="#maae96cf89a" x="122.934871" y="598.120433" style="fill: #ff7f0e; stroke: #ff7f0e"/>
    </g>
   </g>
   <g id="line2d_13">
    <g clip-path="url(#p4c6276bd3e)">
     <use xlink:href="#maae96cf89a" x="615.065129" y="375.65626" style="fill: #ff7f0e; stroke: #ff7f0e"/>
     <use xlink:href="#maae96cf89a" x="350.071913" y="399.690541" style="fill: #ff7f0e; stroke: #ff7f0e"/>
     <use xlink:href="#maae96cf89a" x="122.934871" y="471.655929" style="fill: #ff7f0e; stroke: #ff7f0e"/>
    </g>
   </g>
   <g id="LineCollection_3">
    <path d="M 622.636364 519.583343 
L 622.636364 289.539302 
" clip-path="url(#p4c6276bd3e)" style="fill: none; stroke: #2ca02c; stroke-width: 1.5"/>
    <path d="M 357.643148 552.792386 
L 357.643148 400.313875 
" clip-path="url(#p4c6276bd3e)" style="fill: none; stroke: #2ca02c; stroke-width: 1.5"/>
    <path d="M 130.506106 615.6 
L 130.506106 481.432133 
" clip-path="url(#p4c6276bd3e)" style="fill: none; stroke: #2ca02c; stroke-width: 1.5"/>
   </g>
   <g id="line2d_14">
    <defs>
     <path id="mc7955ba53f" d="M 3 0 
L -3 -0 
" style="stroke: #2ca02c"/>
    </defs>
    <g clip-path="url(#p4c6276bd3e)">
     <use xlink:href="#mc7955ba53f" x="622.636364" y="519.583343" style="fill: #2ca02c; stroke: #2ca02c"/>
     <use xlink:href="#mc7955ba53f" x="357.643148" y="552.792386" style="fill: #2ca02c; stroke: #2ca02c"/>
     <use xlink:href="#mc7955ba53f" x="130.506106" y="615.6" style="fill: #2ca02c; stroke: #2ca02c"/>
    </g>
   </g>
   <g id="line2d_15">
    <g clip-path="url(#p4c6276bd3e)">
     <use xlink:href="#mc7955ba53f" x="622.636364" y="289.539302" style="fill: #2ca02c; stroke: #2ca02c"/>
     <use xlink:href="#mc7955ba53f" x="357.643148" y="400.313875" style="fill: #2ca02c; stroke: #2ca02c"/>
     <use xlink:href="#mc7955ba53f" x="130.506106" y="481.432133" style="fill: #2ca02c; stroke: #2ca02c"/>
    </g>
   </g>
   <g id="line2d_16">
    <path d="M 607.493894 224.666373 
L 342.500678 320.766557 
L 115.363636 542.782962 
" clip-path="url(#p4c6276bd3e)" style="fill: none; stroke: #1f77b4; stroke-width: 1.5; stroke-linecap: square"/>
    <defs>
     <path id="m30437c4596" d="M 0 3 
C 0.795609 3 1.55874 2.683901 2.12132 2.12132 
C 2.683901 1.55874 3 0.795609 3 0 
C 3 -0.795609 2.683901 -1.55874 2.12132 -2.12132 
C 1.55874 -2.683901 0.795609 -3 0 -3 
C -0.795609 -3 -1.55874 -2.683901 -2.12132 -2.12132 
C -2.683901 -1.55874 -3 -0.795609 -3 0 
C -3 0.795609 -2.683901 1.55874 -2.12132 2.12132 
C -1.55874 2.683901 -0.795609 3 0 3 
z
" style="stroke: #1f77b4"/>
    </defs>
    <g clip-path="url(#p4c6276bd3e)">
     <use xlink:href="#m30437c4596" x="607.493894" y="224.666373" style="fill: #1f77b4; stroke: #1f77b4"/>
     <use xlink:href="#m30437c4596" x="342.500678" y="320.766557" style="fill: #1f77b4; stroke: #1f77b4"/>
     <use xlink:href="#m30437c4596" x="115.363636" y="542.782962" style="fill: #1f77b4; stroke: #1f77b4"/>
    </g>
   </g>
   <g id="line2d_17">
    <path d="M 615.065129 491.629379 
L 350.071913 479.688436 
L 122.934871 535.813292 
" clip-path="url(#p4c6276bd3e)" style="fill: none; stroke: #ff7f0e; stroke-width: 1.5; stroke-linecap: square"/>
    <defs>
     <path id="mc8f1d9326e" d="M 0 3 
C 0.795609 3 1.55874 2.683901 2.12132 2.12132 
C 2.683901 1.55874 3 0.795609 3 0 
C 3 -0.795609 2.683901 -1.55874 2.12132 -2.12132 
C 1.55874 -2.683901 0.795609 -3 0 -3 
C -0.795609 -3 -1.55874 -2.683901 -2.12132 -2.12132 
C -2.683901 -1.55874 -3 -0.795609 -3 0 
C -3 0.795609 -2.683901 1.55874 -2.12132 2.12132 
C -1.55874 2.683901 -0.795609 3 0 3 
z
" style="stroke: #ff7f0e"/>
    </defs>
    <g clip-path="url(#p4c6276bd3e)">
     <use xlink:href="#mc8f1d9326e" x="615.065129" y="491.629379" style="fill: #ff7f0e; stroke: #ff7f0e"/>
     <use xlink:href="#mc8f1d9326e" x="350.071913" y="479.688436" style="fill: #ff7f0e; stroke: #ff7f0e"/>
     <use xlink:href="#mc8f1d9326e" x="122.934871" y="535.813292" style="fill: #ff7f0e; stroke: #ff7f0e"/>
    </g>
   </g>
   <g id="line2d_18">
    <path d="M 622.636364 405.962491 
L 357.643148 476.196437 
L 130.506106 547.8032 
" clip-path="url(#p4c6276bd3e)" style="fill: none; stroke: #2ca02c; stroke-width: 1.5; stroke-linecap: square"/>
    <defs>
     <path id="ma837298b36" d="M 0 3 
C 0.795609 3 1.55874 2.683901 2.12132 2.12132 
C 2.683901 1.55874 3 0.795609 3 0 
C 3 -0.795609 2.683901 -1.55874 2.12132 -2.12132 
C 1.55874 -2.683901 0.795609 -3 0 -3 
C -0.795609 -3 -1.55874 -2.683901 -2.12132 -2.12132 
C -2.683901 -1.55874 -3 -0.795609 -3 0 
C -3 0.795609 -2.683901 1.55874 -2.12132 2.12132 
C -1.55874 2.683901 -0.795609 3 0 3 
z
" style="stroke: #2ca02c"/>
    </defs>
    <g clip-path="url(#p4c6276bd3e)">
     <use xlink:href="#ma837298b36" x="622.636364" y="405.962491" style="fill: #2ca02c; stroke: #2ca02c"/>
     <use xlink:href="#ma837298b36" x="357.643148" y="476.196437" style="fill: #2ca02c; stroke: #2ca02c"/>
     <use xlink:href="#ma837298b36" x="130.506106" y="547.8032" style="fill: #2ca02c; stroke: #2ca02c"/>
    </g>
   </g>
   <g id="patch_3">
    <path d="M 90 640.8 
L 90 86.4 
" style="fill: none; stroke: #000000; stroke-width: 0.8; stroke-linejoin: miter; stroke-linecap: square"/>
   </g>
   <g id="patch_4">
    <path d="M 648 640.8 
L 648 86.4 
" style="fill: none; stroke: #000000; stroke-width: 0.8; stroke-linejoin: miter; stroke-linecap: square"/>
   </g>
   <g id="patch_5">
    <path d="M 90 640.8 
L 648 640.8 
" style="fill: none; stroke: #000000; stroke-width: 0.8; stroke-linejoin: miter; stroke-linecap: square"/>
   </g>
   <g id="patch_6">
    <path d="M 90 86.4 
L 648 86.4 
" style="fill: none; stroke: #000000; stroke-width: 0.8; stroke-linejoin: miter; stroke-linecap: square"/>
   </g>
   <g id="legend_1">
    <g id="patch_7">
     <path d="M 104 190.46875 
L 215.678125 190.46875 
Q 219.678125 190.46875 219.678125 186.46875 
L 219.678125 100.4 
Q 219.678125 96.4 215.678125 96.4 
L 104 96.4 
Q 100 96.4 100 100.4 
L 100 186.46875 
Q 100 190.46875 104 190.46875 
z
" style="fill: #ffffff; opacity: 0.8; stroke: #cccccc; stroke-linejoin: miter"/>
    </g>
    <g id="LineCollection_4">
     <path d="M 128 122.596875 
L 128 102.596875 
" style="fill: none; stroke: #1f77b4; stroke-width: 1.5"/>
    </g>
    <g id="line2d_19">
     <g>
      <use xlink:href="#m428c1d2185" x="128" y="122.596875" style="fill: #1f77b4; stroke: #1f77b4"/>
     </g>
    </g>
    <g id="line2d_20">
     <g>
      <use xlink:href="#m428c1d2185" x="128" y="102.596875" style="fill: #1f77b4; stroke: #1f77b4"/>
     </g>
    </g>
    <g id="line2d_21">
     <path d="M 108 112.596875 
L 148 112.596875 
" style="fill: none; stroke: #1f77b4; stroke-width: 1.5; stroke-linecap: square"/>
    </g>
    <g id="line2d_22">
     <g>
      <use xlink:href="#m30437c4596" x="128" y="112.596875" style="fill: #1f77b4; stroke: #1f77b4"/>
     </g>
    </g>
    <g id="text_12">
     <!-- sage -->
     <g transform="translate(164 119.596875) scale(0.2 -0.2)">
      <use xlink:href="#DejaVuSans-73"/>
      <use xlink:href="#DejaVuSans-61" x="52.099609"/>
      <use xlink:href="#DejaVuSans-67" x="113.378906"/>
      <use xlink:href="#DejaVuSans-65" x="176.855469"/>
     </g>
    </g>
    <g id="LineCollection_5">
     <path d="M 128 151.953125 
L 128 131.953125 
" style="fill: none; stroke: #ff7f0e; stroke-width: 1.5"/>
    </g>
    <g id="line2d_23">
     <g>
      <use xlink:href="#maae96cf89a" x="128" y="151.953125" style="fill: #ff7f0e; stroke: #ff7f0e"/>
     </g>
    </g>
    <g id="line2d_24">
     <g>
      <use xlink:href="#maae96cf89a" x="128" y="131.953125" style="fill: #ff7f0e; stroke: #ff7f0e"/>
     </g>
    </g>
    <g id="line2d_25">
     <path d="M 108 141.953125 
L 148 141.953125 
" style="fill: none; stroke: #ff7f0e; stroke-width: 1.5; stroke-linecap: square"/>
    </g>
    <g id="line2d_26">
     <g>
      <use xlink:href="#mc8f1d9326e" x="128" y="141.953125" style="fill: #ff7f0e; stroke: #ff7f0e"/>
     </g>
    </g>
    <g id="text_13">
     <!-- fnn -->
     <g transform="translate(164 148.953125) scale(0.2 -0.2)">
      <use xlink:href="#DejaVuSans-66"/>
      <use xlink:href="#DejaVuSans-6e" x="35.205078"/>
      <use xlink:href="#DejaVuSans-6e" x="98.583984"/>
     </g>
    </g>
    <g id="LineCollection_6">
     <path d="M 128 181.309375 
L 128 161.309375 
" style="fill: none; stroke: #2ca02c; stroke-width: 1.5"/>
    </g>
    <g id="line2d_27">
     <g>
      <use xlink:href="#mc7955ba53f" x="128" y="181.309375" style="fill: #2ca02c; stroke: #2ca02c"/>
     </g>
    </g>
    <g id="line2d_28">
     <g>
      <use xlink:href="#mc7955ba53f" x="128" y="161.309375" style="fill: #2ca02c; stroke: #2ca02c"/>
     </g>
    </g>
    <g id="line2d_29">
     <path d="M 108 171.309375 
L 148 171.309375 
" style="fill: none; stroke: #2ca02c; stroke-width: 1.5; stroke-linecap: square"/>
    </g>
    <g id="line2d_30">
     <g>
      <use xlink:href="#ma837298b36" x="128" y="171.309375" style="fill: #2ca02c; stroke: #2ca02c"/>
     </g>
    </g>
    <g id="text_14">
     <!-- rf -->
     <g transform="translate(164 178.309375) scale(0.2 -0.2)">
      <use xlink:href="#DejaVuSans-72"/>
      <use xlink:href="#DejaVuSans-66" x="41.113281"/>
     </g>
    </g>
   </g>
  </g>
 </g>
 <defs>
  <clipPath id="p4c6276bd3e">
   <rect x="90" y="86.4" width="558" height="554.4"/>
  </clipPath>
 </defs>
</svg>
